<?xml version="1.0" encoding="utf-8"?>
<!-- Generator: Adobe Illustrator 16.2.1, SVG Export Plug-In . SVG Version: 6.00 Build 0)  -->
<!DOCTYPE svg PUBLIC "-//W3C//DTD SVG 1.1//EN" "http://www.w3.org/Graphics/SVG/1.1/DTD/svg11.dtd">
<svg version="1.1" id="Warstwa_1" xmlns="http://www.w3.org/2000/svg" xmlns:xlink="http://www.w3.org/1999/xlink" x="0px" y="0px"
	 width="107px" height="34px" viewBox="0 0 107 34" enable-background="new 0 0 107 34" xml:space="preserve">
<title>465D1983-484E-4839-BF5E-D6469CB2B090</title>
<desc>Created with sketchtool.</desc>
<path fill="#FFFFFF" d="M33.971,29.097c0,2.692-2.182,4.874-4.875,4.874H4.874C2.182,33.971,0,31.789,0,29.097V4.874
	C0,2.182,2.182,0,4.874,0h24.223c2.692,0,4.875,2.182,4.875,4.874V29.097z"/>
<g>
	<path fill="#FFFFFF" d="M45.038,21.455h1.708l1.695,6.525l1.724-6.525h1.752l1.65,6.496l1.68-6.496h1.649l-2.52,8.117h-1.768
		l-1.635-5.996l-1.635,5.996h-1.768L45.038,21.455z"/>
	<path fill="#FFFFFF" d="M57.93,19.305c0-0.604,0.473-1.075,1.075-1.075c0.591,0,1.062,0.472,1.062,1.075
		c0,0.604-0.471,1.075-1.062,1.075C58.402,20.38,57.93,19.909,57.93,19.305z M58.151,21.455h1.679v8.117h-1.679V21.455z"/>
	<path fill="#FFFFFF" d="M65.326,21.322c1.061,0,2.18,0.501,2.799,1.267v-3.917h1.694v10.9h-1.694V28.35
		c-0.516,0.736-1.487,1.355-2.813,1.355c-2.136,0-3.831-1.725-3.831-4.229S63.176,21.322,65.326,21.322z M65.665,22.781
		c-1.252,0-2.46,0.943-2.46,2.695c0,1.754,1.208,2.77,2.46,2.77c1.267,0,2.46-0.986,2.46-2.739
		C68.125,23.768,66.932,22.781,65.665,22.781z"/>
	<path fill="#FFFFFF" d="M75.302,21.322c1.326,0,2.312,0.619,2.813,1.312v-1.179h1.694v8.25c0,2.21-1.43,3.874-3.963,3.874
		c-2.166,0-3.771-1.076-3.978-2.872h1.665c0.25,0.838,1.148,1.413,2.312,1.413c1.296,0,2.269-0.795,2.269-2.415V28.35
		c-0.516,0.691-1.487,1.355-2.813,1.355c-2.136,0-3.831-1.725-3.831-4.229S73.166,21.322,75.302,21.322z M75.654,22.781
		c-1.252,0-2.46,0.943-2.46,2.695c0,1.754,1.208,2.77,2.46,2.77c1.267,0,2.461-0.986,2.461-2.739
		C78.115,23.768,76.921,22.781,75.654,22.781z"/>
	<path fill="#FFFFFF" d="M85.513,29.705c-2.328,0-4.052-1.65-4.052-4.198c0-2.549,1.65-4.185,4.052-4.185
		c2.312,0,3.947,1.606,3.947,3.992c0,0.28-0.015,0.546-0.059,0.826H83.2c0.117,1.34,1.075,2.15,2.312,2.15
		c1.03,0,1.604-0.501,1.914-1.134h1.812C88.783,28.57,87.501,29.705,85.513,29.705z M83.215,24.784h4.493
		c-0.03-1.252-1.018-2.047-2.27-2.047C84.305,22.737,83.391,23.503,83.215,24.784z"/>
	<path fill="#FFFFFF" d="M91.377,22.825h-0.956v-1.37h0.956v-2.018h1.695v2.018h1.973v1.37h-1.973v4.493
		c0,0.604,0.235,0.854,0.943,0.854h1.029v1.399H93.72c-1.444,0-2.343-0.604-2.343-2.254V22.825z"/>
</g>
<g>
	<path fill="#FF8C00" d="M10.971,14.082c2.179,0,3.866,1.672,3.866,4.209c0,2.538-1.702,4.285-3.866,4.285
		c-1.358,0-2.33-0.612-2.866-1.328v1.193H6.402V11.395h1.702v4.046C8.641,14.694,9.672,14.082,10.971,14.082z M10.598,15.559
		c-1.27,0-2.493,1-2.493,2.762c0,1.776,1.224,2.776,2.493,2.776c1.284,0,2.508-1.029,2.508-2.807
		C13.105,16.515,11.882,15.559,10.598,15.559z"/>
	<path fill="#FF8C00" d="M15.553,14.216h1.731l1.717,6.613l1.746-6.613h1.776l1.673,6.583l1.702-6.583h1.671l-2.552,8.225h-1.793
		l-1.656-6.076l-1.656,6.076H18.12L15.553,14.216z"/>
</g>
<g>
	<path fill="#FFFFFF" d="M49.869,4.574c2.151,0,3.815,1.651,3.815,4.155c0,2.503-1.679,4.227-3.815,4.227
		c-1.34,0-2.298-0.604-2.828-1.311v1.179h-1.679v-10.9h1.679v3.991C47.571,5.177,48.587,4.574,49.869,4.574z M49.5,6.032
		c-1.252,0-2.46,0.986-2.46,2.726c0,1.752,1.208,2.74,2.46,2.74c1.267,0,2.475-1.017,2.475-2.769
		C51.975,6.975,50.767,6.032,49.5,6.032z"/>
	<path fill="#FFFFFF" d="M55.13,2.555c0-0.603,0.472-1.074,1.075-1.074c0.591,0,1.062,0.471,1.062,1.074
		c0,0.605-0.471,1.076-1.062,1.076C55.602,3.631,55.13,3.16,55.13,2.555z M55.351,4.707h1.68v8.117h-1.68V4.707z"/>
	<path fill="#FFFFFF" d="M59.506,6.076h-0.957v-1.37h0.957V2.688H61.2v2.018h1.974v1.37H61.2v4.494c0,0.603,0.235,0.854,0.943,0.854
		h1.03v1.399h-1.325c-1.444,0-2.343-0.605-2.343-2.254V6.076z"/>
	<path fill="#FFFFFF" d="M68.14,4.574c1.989,0,3.285,0.987,3.742,2.696h-1.812c-0.279-0.781-0.928-1.281-1.93-1.281
		c-1.355,0-2.254,1.001-2.254,2.77c0,1.782,0.898,2.784,2.254,2.784c1.002,0,1.62-0.442,1.93-1.282h1.812
		c-0.457,1.592-1.753,2.696-3.742,2.696c-2.327,0-3.978-1.65-3.978-4.198C64.162,6.225,65.812,4.574,68.14,4.574z"/>
	<path fill="#FFFFFF" d="M77.083,12.956c-2.312,0-4.064-1.65-4.064-4.198c0-2.549,1.826-4.184,4.139-4.184s4.14,1.635,4.14,4.184
		C81.297,11.306,79.411,12.956,77.083,12.956z M77.083,11.498c1.253,0,2.49-0.899,2.49-2.74c0-1.841-1.193-2.726-2.445-2.726
		c-1.267,0-2.401,0.884-2.401,2.726C74.727,10.599,75.816,11.498,77.083,11.498z"/>
	<path fill="#FFFFFF" d="M82.742,2.555c0-0.603,0.473-1.074,1.075-1.074c0.591,0,1.062,0.471,1.062,1.074
		c0,0.605-0.471,1.076-1.062,1.076C83.215,3.631,82.742,3.16,82.742,2.555z M82.964,4.707h1.679v8.117h-1.679V4.707z"/>
	<path fill="#FFFFFF" d="M92.613,8.286c0-1.488-0.81-2.254-2.033-2.254c-1.236,0-2.048,0.766-2.048,2.254v4.538h-1.679V4.707h1.679
		v0.928c0.547-0.664,1.444-1.061,2.416-1.061c1.901,0,3.33,1.193,3.33,3.462v4.788h-1.665V8.286z"/>
</g>
</svg>
